<svg width="512" height="512" viewBox="0 0 512 512" xmlns="http://www.w3.org/2000/svg">
  <defs>
    <linearGradient id="bg-gradient" x1="0%" y1="0%" x2="100%" y2="100%">
      <stop stop-color="#2563EB" offset="0%"/>
      <stop stop-color="#1E3A8A" offset="100%"/>
    </linearGradient>
    <filter id="shadow" x="-20%" y="-20%" width="140%" height="140%">
      <feDropShadow dx="0" dy="8" stdDeviation="12" flood-color="#000" flood-opacity="0.15"/>
    </filter>
  </defs>
  
  <!-- App Icon Background (Squircle) -->
  <rect x="0" y="0" width="512" height="512" rx="115" fill="url(#bg-gradient)"/>
  
  <!-- Clipboard / Document Base -->
  <rect x="136" y="116" width="240" height="320" rx="24" fill="white" filter="url(#shadow)"/>
  
  <!-- Clip Mechanism -->
  <path d="M196 96 h120 v36 a 12 12 0 0 1 -12 12 h-96 a 12 12 0 0 1 -12 -12 z" fill="#DBEAFE"/>
  <rect x="226" y="76" width="60" height="24" rx="6" fill="#93C5FD"/>
  
  <!-- Document Lines (Abstract Text) -->
  <rect x="176" y="190" width="160" height="16" rx="8" fill="#F3F4F6"/>
  <rect x="176" y="230" width="120" height="16" rx="8" fill="#F3F4F6"/>
  <rect x="176" y="270" width="160" height="16" rx="8" fill="#F3F4F6"/>
  
  <!-- Large Checkmark (The Audit Approval) -->
  <path d="M350 300 L 230 410 L 160 340" stroke="#16A34A" stroke-width="48" stroke-linecap="round" stroke-linejoin="round" fill="none"/>
</svg>
